name C:\Users\u0101727\Documents\MyRepositories\upper-imu-dc\Results\main_tracking\Case_47\kinematics_filtered.mot
datacolumns 10
datarows 56
range 3.75000000 4.30000000
endheader 
time	clav_prot	clav_elev	scapula_abduction	scapula_elevation	scapula_upward_rot	scapula_winging	plane_elv	shoulder_elv	axial_rot	
          3.75000000	        -47.20511368	          9.98951389	         -3.67652873	         -1.16123125	         84.70450830	        -13.84935975	         33.52863452	         87.51769323	        -11.86487620	
          3.76000000	        -47.11682195	         10.01629132	         -3.58415404	         -1.14391743	         84.64077507	        -13.80382635	         33.62199172	         87.47522107	        -11.84421525	
          3.77000000	        -47.02719670	         10.04422169	         -3.49472653	         -1.12650950	         84.57047857	        -13.75892208	         33.72653700	         87.43428050	        -11.82247001	
          3.78000000	        -46.93659410	         10.07293849	         -3.40848026	         -1.10923121	         84.49398968	        -13.71474450	         33.84156207	         87.39464390	        -11.80076197	
          3.79000000	        -46.84537386	         10.10207094	         -3.32563447	         -1.09230624	         84.41170600	        -13.67138657	         33.96635158	         87.35603453	        -11.78001643	
          3.80000000	        -46.75388638	         10.13125609	         -3.24637717	         -1.07594945	         84.32404888	        -13.62893102	         34.10017473	         87.31814513	        -11.76092373	
          3.81000000	        -46.66246043	         10.16014986	         -3.17085033	         -1.06035913	         84.23145910	        -13.58744521	         34.24227801	         87.28065683	        -11.74391825	
          3.82000000	        -46.57139278	         10.18843657	         -3.09913897	         -1.04571047	         84.13439123	        -13.54697725	         34.39188104	         87.24325709	        -11.72917402	
          3.83000000	        -46.48094071	         10.21583674	         -3.03126565	         -1.03215070	         84.03330656	        -13.50755399	         34.54817671	         87.20565517	        -11.71661431	
          3.84000000	        -46.39131805	         10.24211315	         -2.96719138	         -1.01979574	         83.92866484	        -13.46918139	         34.71033633	         87.16759435	        -11.70593242	
          3.85000000	        -46.30269498	         10.26707506	         -2.90682309	         -1.00872851	         83.82091521	        -13.43184714	         34.87751975	         87.12886031	        -11.69662060	
          3.86000000	        -46.21520140	         10.29058064	         -2.85002691	         -0.99899874	         83.71048671	        -13.39552546	         35.04888964	         87.08928558	        -11.68800466	
          3.87000000	        -46.12893319	         10.31253735	         -2.79664588	         -0.99062438	         83.59777890	        -13.36018338	         35.22362882	         87.04875016	        -11.67928181	
          3.88000000	        -46.04396059	         10.33290041	         -2.74652013	         -0.98359438	         83.48315318	        -13.32578773	         35.40095904	         87.00717885	        -11.66956031	
          3.89000000	        -45.96033741	         10.35166917	         -2.69950714	         -0.97787266	         83.36692544	        -13.29231206	         35.58015937	         86.96453569	        -11.65789979	
          3.90000000	        -45.87811000	         10.36888166	         -2.65549969	         -0.97340318	         83.24936064	        -13.25974249	         35.76058266	         86.92081636	        -11.64335158	
          3.91000000	        -45.79732466	         10.38460785	         -2.61443898	         -0.97011531	         83.13066975	        -13.22808166	         35.94166810	         86.87603912	        -11.62499894	
          3.92000000	        -45.71803224	         10.39894178	         -2.57632076	         -0.96792945	         83.01100950	        -13.19735001	         36.12294884	         86.83023529	        -11.60199694	
          3.93000000	        -45.64028899	         10.41199347	         -2.54119285	         -0.96676211	         82.89048501	        -13.16758394	         36.30405359	         86.78343997	        -11.57361193	
          3.94000000	        -45.56415303	         10.42388094	         -2.50914329	         -0.96653023	         82.76915506	        -13.13883053	         36.48470191	         86.73568381	        -11.53926007	
          3.95000000	        -45.48967611	         10.43472287	         -2.48027891	         -0.96715445	         82.64703967	        -13.11113887	         36.66469367	         86.68698646	        -11.49854359	
          3.96000000	        -45.41689114	         10.44463222	         -2.45469579	         -0.96856117	         82.52412915	        -13.08454861	         36.84389365	         86.63735206	        -11.45128315	
          3.97000000	        -45.34579607	         10.45371104	         -2.43244343	         -0.97068347	         82.40039395	        -13.05907635	         37.02221293	         86.58676697	        -11.39754360	
          3.98000000	        -45.27633572	         10.46204674	         -2.41348577	         -0.97346092	         82.27579413	        -13.03470115	         37.19958923	         86.53519974	        -11.33765038	
          3.99000000	        -45.20838295	         10.46970979	         -2.39766247	         -0.97683859	         82.15028772	        -13.01135035	         37.37596832	         86.48260291	        -11.27219391	
          4.00000000	        -45.14172129	         10.47675292	         -2.38465452	         -0.98076532	         82.02383706	        -12.98888719	         37.55128874	         86.42891644	        -11.20202014	
          4.01000000	        -45.07603083	         10.48321169	         -2.37395767	         -0.98519176	         81.89641233	        -12.96710170	         37.72547183	         86.37407226	        -11.12820661	
          4.02000000	        -45.01087928	         10.48910619	         -2.36486744	         -0.99006847	         81.76799196	        -12.94570584	         37.89841834	         86.31799922	        -11.05202454	
          4.03000000	        -44.94571977	         10.49444339	         -2.35647813	         -0.99534440	         81.63855952	        -12.92433410	         38.07001270	         86.26062831	        -10.97488898	
          4.04000000	        -44.87989632	         10.49921993	         -2.34769771	         -1.00096632	         81.50809722	        -12.90254985	         38.24013487	         86.20189731	        -10.89829973	
          4.05000000	        -44.81265754	         10.50342474	         -2.33727880	         -1.00687912	         81.37657629	        -12.87985768	         38.40867924	         86.14175475	        -10.82377631	
          4.06000000	        -44.74317825	         10.50704150	         -2.32386488	         -1.01302731	         81.24394486	        -12.85572125	         38.57557922	         86.08016287	        -10.75279060	
          4.07000000	        -44.67058788	         10.51005085	         -2.30604926	         -1.01935725	         81.11011430	        -12.82958563	         38.74083543	         86.01709964	        -10.68670048	
          4.08000000	        -44.59400419	         10.51243247	         -2.28244334	         -1.02582003	         80.97494505	        -12.80090297	         38.90454504	         85.95255994	        -10.62668770	
          4.09000000	        -44.51257000	         10.51416723	         -2.25174960	         -1.03237432	         80.83823316	        -12.76915968	         39.06692959	         85.88655633	        -10.57370305	
          4.10000000	        -44.42549067	         10.51523950	         -2.21283440	         -1.03898890	         80.69969902	        -12.73390336	         39.22835868	         85.81911965	        -10.52842152	
          4.11000000	        -44.33206990	         10.51563969	         -2.16479553	         -1.04564457	         80.55897931	        -12.69476754	         39.38936709	         85.75029995	        -10.49120978	
          4.12000000	        -44.23174151	         10.51536672	         -2.10701984	         -1.05233516	         80.41562354	        -12.65149265	         39.55066361	         85.68016781	        -10.46210796	
          4.13000000	        -44.12409537	         10.51443031	         -2.03922681	         -1.05906763	         80.26909600	        -12.60394154	         39.71313005	         85.60881603	        -10.44082693	
          4.14000000	        -44.00889591	         10.51285262	         -1.96149515	         -1.06586134	         80.11878363	        -12.55210865	         39.87780979	         85.53636150	        -10.42676147	
          4.15000000	        -43.88609234	         10.51066904	         -1.87427035	         -1.07274660	         79.96401011	        -12.49612206	         40.04588582	         85.46294662	        -10.41901876	
          4.16000000	        -43.75582009	         10.50792786	         -1.77835271	         -1.07976264	         79.80405583	        -12.43623842	         40.21864874	         85.38873972	        -10.41646045	
          4.17000000	        -43.61839363	         10.50468874	         -1.67486636	         -1.08695527	         79.63818302	        -12.37283106	         40.39745594	         85.31393380	        -10.41775564	
          4.18000000	        -43.47429131	         10.50102024	         -1.56521125	         -1.09437414	         79.46566483	        -12.30637212	         40.58368367	         85.23874301	        -10.42144128	
          4.19000000	        -43.32413332	         10.49699651	         -1.45100109	         -1.10206989	         79.28581704	        -12.23741004	         40.77867442	         85.16339651	        -10.42598591	
          4.20000000	        -43.16865428	         10.49269358	         -1.33399107	         -1.11009121	         79.09803041	        -12.16654384	         40.98368215	         85.08812946	        -10.42985262	
          4.21000000	        -43.00867209	         10.48818582	         -1.21599967	         -1.11848174	         78.90180198	        -12.09439596	         41.19981829	         85.01317155	        -10.43155731	
          4.22000000	        -42.84505499	         10.48354277	         -1.09882951	         -1.12727710	         78.69676340	        -12.02158536	         41.42800155	         84.93873346	        -10.42971906	
          4.23000000	        -42.67868860	         10.47882672	         -0.98419142	         -1.13650197	         78.48270435	        -11.94870250	         41.66891422	         84.86499199	        -10.42310011	
          4.24000000	        -42.51044466	         10.47409130	         -0.87363627	         -1.14616761	         78.25958988	        -11.87628743	         41.92296731	         84.79207509	        -10.41063417	
          4.25000000	        -42.34115286	         10.46938092	         -0.76849764	         -1.15626971	         78.02757017	        -11.80481224	         42.19027635	         84.72004761	        -10.39144275	
          4.26000000	        -42.17157680	         10.46473123	         -0.66984801	         -1.16678704	         77.78698235	        -11.73466824	         42.47064900	         84.64889916	        -10.36484028	
          4.27000000	        -42.00239487	         10.46017025	         -0.57846967	         -1.17768072	         77.53834397	        -11.66615827	         42.76358473	         84.57853465	        -10.33032963	
          4.28000000	        -41.83418608	         10.45572000	         -0.49484065	         -1.18889445	         77.28233871	        -11.59949374	         43.06828636	         84.50876851	        -10.28759018	
          4.29000000	        -41.66742102	         10.45139835	         -0.41913496	         -1.20035554	         77.01979499	        -11.53479624	         43.38368253	         84.43932291	        -10.23646109	
          4.30000000	        -41.50245750	         10.44722065	         -0.35123573	         -1.21197694	         76.75165882	        -11.47210263	         43.70845992	         84.36983002	        -10.17692221	
